<?xml version="1.0" encoding="utf-8"?>
<!-- Generator: Adobe Illustrator 26.0.0, SVG Export Plug-In . SVG Version: 6.00 Build 0)  -->
<svg version="1.1" id="Capa_1" xmlns="http://www.w3.org/2000/svg" xmlns:xlink="http://www.w3.org/1999/xlink" x="0px" y="0px"
	 viewBox="0 0 250 250" style="enable-background:new 0 0 250 250;" xml:space="preserve">
<style type="text/css">
	.st0{fill:#FFFFFF;}
</style>
<rect x="-3" y="-1" width="254" height="253"/>
<path class="st0" d="M151.4,179.6c-0.7-17.8-0.7-35.6-0.8-53.3c0-1.5,1.4-3.4,0.9-4.5c-3.3-6.4,2.1-10.1,4.3-14.7
	c0.9-1.8,1.8-3.6,2.7-5.3c-5,2.1-8.4-0.3-11.6-2.5c-6.2-4.3-12.2-8.8-18.6-13.4c-3.3,4.3-6.6,8.2-9.6,12.3
	c-10.2,14.4-14.8,30.3-11.8,47.9c0.9,5.3,3.1,10.1,7.9,13.2c1.4,0.9,3.2,0.9,4.9,1.3c0.1-0.3,0.2-0.7,0.3-1
	c-4.1-1.4-5.7-4.6-6.4-8.6c-3-17.2,5.7-30,15.4-42.8c2.7,2,6.8,2.7,5.6,6.9c-1,3.5-0.2,6.7-0.1,10c0.2,14.3,0,28.6-0.5,42.9
	c-0.2,4.5-1.5,9.2-3.2,13.4c-3,7.7-11.2,9.2-17.1,3.5c-1.6-1.5-3.3-3.4-3.9-5.4c-2.4-7.2-4.9-14.5-6.2-21.9
	c-1.4-7.5-1-15.3-2.1-22.8c-1.1-7.5,0.2-14.9,0-22.3c-0.4-13.3,1.6-26.6,6.1-39.2c1.9-5.3,4.7-10.6,8.3-15
	c4.4-5.4,11.3-4.4,15.4,1.2c2.8,3.8,3.2,8,1.7,12.2c-0.6,1.8-2.8,3.8-4.6,4.1c-1.6,0.3-3.6-1.4-5.3-2.1c-0.6,5.7,3.4,9.8,9.9,8.8
	c7-1,11.2-5.5,13.2-11.9c1-3.3,3.5-7.2,1.5-7.2c0.8-1.6,1.9-3.1,2.2-4.7c0.7-4.1,2.7-7.5,4.3-11.2c0.7-1.6,0.1-3.7-0.2-5.6
	c-2.6,4.7-5,6.1-10.4,5.1c-3.1-0.6-6-1.8-9-2.5c-3.5-0.9-7-1.9-10.6-2.3c-2.5-0.3-6.7,0.2-7.7,0.7c-1.3,0.7-2.9,0.8-4.3,1.1
	c-0.1-0.5-3.2,1.9-6.4,2.4c-1.1,0.2-2.1,0.7-3.2,0.9c-4.8,0.9-7.5-0.5-10.6-4.8c0.2,2.2,0.1,4.4,0.8,6.4c0.6,1.9,2.2,3.5,2.9,5.4
	c0.7,1.8,0.7,3.9,1.1,6.3C95.3,61.3,94,65,95,65c-5.7,12.2-8.2,26-10.3,39.8c-0.9,5.5-1.9,11.1-1.8,16.6c0.1,6.6,1.5,13.1,2.2,19.6
	c1.2,12,3.2,23.8,7.7,35.1c0.9,2.2,0.7,4,0.3,6.3c-0.5,3.4-1,6.6-2.7,9.6c-0.4,0.6-0.1,1.6-0.1,2.6c4.8-2.3,8.5-1.9,15.6,1.6
	c8.2,4.1,16.6,5.3,25.5,2.2c0.6-0.2,1.4-0.2,3.1-0.4c-1.3,4-2.2,7.4-3.4,10.7c-1.3,3.5-3.7,6-8.3,6.5c4.8,2.6,8.7,1.5,11.4-1.3
	c4-4.2,7.1-9.2,10.6-13.8c0.6-0.8,1.1-2.2,2-2.4c4-1.1,8-1.9,12.4-2.9C153.2,191.3,151.6,185.4,151.4,179.6z M96.9,119.9
	c-1.4,4.5-2.7,9-4.1,13.6c-0.9-3.1-1.6-6.6-3-9.7c-1.2-2.7-1.3-4.8-0.2-7.6c1.4-3.6,2-7.6,2.9-11.3c1.6,4.7,3.1,9.2,4.6,13.7
	C97.2,118.9,97,119.4,96.9,119.9z M144.6,128.5c-0.8,1.6-0.9,3.6-1.4,6.3c-1.7-5.5-3.1-10.2-4.5-14.5c1.4-5.9,2.7-11.3,4.1-17.3
	c0.7,4.4,0.7,8.6,2.1,12.3C146.7,119.9,146.9,124.1,144.6,128.5z"/>
</svg>
